<?xml version="1.0"?>

<svg version="1.1" xmlns="http://www.w3.org/2000/svg" xmlns:xlink="http://www.w3.org/1999/xlink" width="559.095276" height="1000.000000" viewBox="0 0 559.095276 1000.000000">

  <g transform="translate(272.352371 -67.908951)" style="fill: rgb(0.000000%,0.000000%,0.000000%);">
    <text font-size="9.962646">top</text>
  </g>
  <path d="M109.939255 713.814926C156.831879 447.870422,225.760406 57.049713,295.912354 57.049713C337.542221 57.049713,404.967178 439.382706,449.212906 690.315796C451.736084 704.624115,476.468033 722.049057,495.416489 722.047577C503.946747 722.047333,509.094406 718.270493,509.095276 712.010849C509.095367 711.246979,509.023773 710.470291,508.885147 709.684204C457.413803 417.772125,386.004425 12.954559,263.182922 12.954559C168.883591 12.954559,99.031067 408.981949,50.153244 686.185074C50.051758 686.760681,50.000092 687.362473,50.000000 687.989151C49.998322 702.656876,76.424240 722.049133,96.413712 722.047577C104.089981 722.047363,109.027023 718.988861,109.939255 713.814926Z" style="fill: rgb(1.176453%,41.175842%,63.137817%);stroke: none;"></path>
  <path d="M145.081711 458.634567L446.742996 458.634567C455.276001 458.634323,460.423660 454.857483,460.424530 448.597839C460.426208 433.930786,434.002701 414.539627,414.013565 414.539413L112.352280 414.539413C103.819275 414.539658,98.671616 418.316498,98.670746 424.576141C98.669067 439.243195,125.092575 458.634354,145.081711 458.634567Z" style="fill: rgb(1.176453%,41.175842%,63.137817%);stroke: none;"></path>
</svg>
